inDegrees=no
num_controls=7
num_derivatives=13
num_iterations=118
num_multipliers=7
num_parameters=0
num_slacks=7
num_states=26
objective=0.444883
objective_accelerations=0.057996
objective_balance=0.003638
objective_effort=0.023388
objective_height=0.354360
objective_ligament=0.005500
solver_duration=1740.696961
status=Solve_Succeeded
success=true
DataType=double
version=3
OpenSimVersion=4.5
endheader
time	/jointset/ground_pelvis/pelvis_tilt/value	/jointset/ground_pelvis/pelvis_tx/value	/jointset/ground_pelvis/pelvis_ty/value	/jointset/hip_l/hip_flexion_l/value	/jointset/hip_l/hip_adduction_l/value	/jointset/hip_l/hip_rotation_l/value	/jointset/back/lumbar_extension/value	/jointset/patellofemoral_l/patellar_flexion_l/value	/jointset/knee_l/knee_flexion_l/value	/jointset/knee_l/knee_adduction_l/value	/jointset/knee_l/knee_rotation_l/value	/jointset/ankle_l/ankle_angle_l/value	/jointset/subtalar_l/subtalar_angle_l/value	/jointset/ground_pelvis/pelvis_tilt/speed	/jointset/ground_pelvis/pelvis_tx/speed	/jointset/ground_pelvis/pelvis_ty/speed	/jointset/hip_l/hip_flexion_l/speed	/jointset/hip_l/hip_adduction_l/speed	/jointset/hip_l/hip_rotation_l/speed	/jointset/back/lumbar_extension/speed	/jointset/patellofemoral_l/patellar_flexion_l/speed	/jointset/knee_l/knee_flexion_l/speed	/jointset/knee_l/knee_adduction_l/speed	/jointset/knee_l/knee_rotation_l/speed	/jointset/ankle_l/ankle_angle_l/speed	/jointset/subtalar_l/subtalar_angle_l/speed	/forceset/tau_hip_flexion_l	/forceset/tau_hip_adduction_l	/forceset/tau_hip_rotation_l	/forceset/tau_knee_flexion_l	/forceset/tau_ankle_angle_l	/forceset/tau_subtalar_angle_l	/forceset/tau_lumbar_extension	lambda_cid13_p0	lambda_cid13_p1	lambda_cid13_p2	lambda_cid13_p3	lambda_cid13_p4	lambda_cid13_p5	lambda_cid14_p0	/jointset/ground_pelvis/pelvis_tilt/accel	/jointset/ground_pelvis/pelvis_tx/accel	/jointset/ground_pelvis/pelvis_ty/accel	/jointset/hip_l/hip_flexion_l/accel	/jointset/hip_l/hip_adduction_l/accel	/jointset/hip_l/hip_rotation_l/accel	/jointset/back/lumbar_extension/accel	/jointset/patellofemoral_l/patellar_flexion_l/accel	/jointset/knee_l/knee_flexion_l/accel	/jointset/knee_l/knee_adduction_l/accel	/jointset/knee_l/knee_rotation_l/accel	/jointset/ankle_l/ankle_angle_l/accel	/jointset/subtalar_l/subtalar_angle_l/accel	gamma_cid13_p0	gamma_cid13_p1	gamma_cid13_p2	gamma_cid13_p3	gamma_cid13_p4	gamma_cid13_p5	gamma_cid14_p0
0.5	-0.3503228072991247	-0.04320150591943938	0.7574204420384838	1.118216369922897	-0.4368832639825851	-0.2218366180996367	-0.2544559282888981	0.80855930696747	0.8085593069674173	-0.1281310002209149	-0.1593901927185485	0.1003513725081082	-0.03671128200007041	-0.7944329906267137	-0.2264272869981861	-0.5416020219106608	2.527367535000228	-0.2044868272870806	0.7529316954894689	-0.1156196981042727	1.993740806671365	1.993740806671372	0.1287429915746707	-0.08520714786096643	0.4338996781652487	-0.01350012329819351	-0.1742287559512036	0.0187907346027636	-0.01105997523756666	-0.2164725932416806	0.06962157804826617	0.04580313724796591	0.1706970308858535	-10.41602511309794	-21.16448612020975	6.574604956163131	-6.812181730243341	-522.0702071781003	-63.28100058875279	-25.09662334107434	0.8331606769902671	0.6286450267643616	-0.4636819957300299	-1.399767860602174	0.7552172082330578	-0.2126107732661307	1.104430774561104	-1.274768415406351	-1.274768415406352	0.08856628849479424	0.1782028091892385	-0.5037953621923809	0.5579391387181757	-5.547672520743649e-07	-4.584341557065893e-07	2.724387311556093e-06	1.383614247060336e-07	-6.277682029394565e-07	9.390222459814353e-08	-4.571967448829597e-07
0.51	-0.3582235384836253	-0.04543408565630457	0.7519824325649693	1.14341513539959	-0.4388915261865886	-0.2143168484607	-0.2555581533204656	0.8284298769756957	0.8284298769756829	-0.1268434043430653	-0.1602329393483692	0.1046639707401089	-0.03682030585419522	-0.78559748358926	-0.2200704091593671	-0.5458832389678925	2.512039405066126	-0.1971503382414351	0.75092171685304	-0.1048697957515218	1.980105160047418	1.980105160047425	0.1287698278264977	-0.08333378501699018	0.4285454168785831	-0.008317078900118166	-0.1798741476608225	0.01947001547743495	-0.01113436597645877	-0.2191462470181538	0.06919338349150779	0.04619626190735192	0.1749922839714891	-10.76046490101972	-21.25339368741989	6.56420015682109	-6.72211134248156	-525.7633448829591	-62.92185535747337	-24.1778567387565	0.9260421541495862	0.6419760312313916	-0.3929691414778492	-1.651338609945305	0.724856944964332	-0.2106611573133798	1.053596834280569	-1.448077154834065	-1.448077154833923	-0.04117715637769961	0.1937162763707972	-0.5624195493345275	0.4963701658113645	-5.410448319426748e-07	-3.717048555159784e-07	2.754460844157734e-06	1.566996230120115e-07	-6.019537523956686e-07	1.65611353456284e-07	-4.501994524674582e-07
0.52	-0.3660324553103459	-0.04760254324102341	0.7465050854047309	1.168450218966916	-0.4408260250616888	-0.2068202725578246	-0.2565542139547757	0.8481560676438926	0.84815606764392	-0.1255557239926781	-0.1610565896988767	0.1089207907517566	-0.03687792264924744	-0.7760701190707396	-0.2136028565689184	-0.5494695592554476	2.494631153126783	-0.1897341615064275	0.7482929482773271	-0.09438681865283129	1.964864938665666	1.964864938665674	0.1287598860821506	-0.08138789199825447	0.4227440340946827	-0.00321871148367678	-0.1855195393704412	0.02014929635210429	-0.01120875671534322	-0.2218199007946278	0.06876518893474852	0.046589386566735	0.1792875370571258	-11.10840612890956	-21.34247875786022	6.554728422866735	-6.664403217035194	-529.5381834079396	-62.62228673405315	-23.26039936519512	0.971532173203581	0.6507799770902991	-0.3247026417947154	-1.815792261650239	0.7711547461054673	-0.3363687611228909	1.051045723749028	-1.595683366967309	-1.595683366967309	0.08121068925997477	0.1927088441411306	-0.5932196616393074	0.5410037423913839	-5.262968636064847e-07	-2.792293952125564e-07	2.786901511629772e-06	1.784539454703743e-07	-5.790861816368762e-07	2.380780205901207e-07	-4.418136467258141e-07
0.53	-0.3737428352748614	-0.0497058439093597	0.7409953671973947	1.193301168565296	-0.4426859604763136	-0.1993527664186007	-0.2574468067761294	0.867722035890832	0.8677220358908387	-0.1242683814550605	-0.1618602626354857	0.1131174721018303	-0.03688492531625544	-0.7658972954073358	-0.2070452888259917	-0.5523541607289061	2.475223479637833	-0.182244802035039	0.7451050124856227	-0.08419187055299708	1.948073442932103	1.948073442932106	0.1287024632177895	-0.07934265278772198	0.4165247835461376	0.00180148280980024	-0.1910063130399175	0.02056144685875554	-0.01123105877557525	-0.2246108608970356	0.06843400355202831	0.04686184322074565	0.1834179844435793	-11.42732509341892	-21.38074628889388	6.533163356452908	-6.549772137449517	-533.2733248306088	-62.27689896665897	-22.34583536871127	1.056374991895006	0.6600813898388884	-0.2524640926735979	-2.053628556140628	0.7387122971890476	-0.3258689836053054	0.9947006128324164	-1.759085363275442	-1.759085363276148	-0.05008766592900141	0.211603975795066	-0.6463796663018373	0.4797327040618469	-5.096104966786443e-07	-1.828594535942088e-07	2.812075938856061e-06	2.03099896156985e-07	-5.57679555102313e-07	3.091072182544621e-07	-4.309479487398931e-07
0.54	-0.3813482434969456	-0.05174320165687771	0.7354603779368133	1.217947966696062	-0.444470825146318	-0.191920312236376	-0.2582392538645382	0.8871124486430912	0.8871124486430768	-0.1229817869244167	-0.1626432486767306	0.1172499405634505	-0.03684228495408146	-0.7550757705844838	-0.2004142724052638	-0.5545237699044511	2.453800859603954	-0.1747200125823102	0.741282556877475	-0.07435767206389064	1.929753839729554	1.929753839729553	0.1286102846876347	-0.07725051292575895	0.4099014564040032	0.006709894352716799	-0.1964930867093946	0.02097359736540671	-0.01125336083582214	-0.2274018209994424	0.06810281816930827	0.04713429987475654	0.1875484318300319	-11.75021051152049	-21.41913697931078	6.512553683884201	-6.46560074239626	-537.0966674781232	-61.99115932848049	-21.43720862015854	1.101272405093178	0.6654697126505354	-0.1817041822119988	-2.218781570636091	0.7782407423735309	-0.4632727244115364	0.9788958016034713	-1.901304860764361	-1.901304860764372	0.0742595561012325	0.2020889744272394	-0.6740349803572018	0.5186471922792912	-4.907795185430205e-07	-8.21807241380711e-08	2.829211121555139e-06	2.309450950961253e-07	-5.378892923903015e-07	3.785460241653192e-07	-4.173385401858359e-07
0.55	-0.3888424121145372	-0.05371397009751809	0.7299072769053702	1.242370837702633	-0.4461802160194153	-0.1845288643461255	-0.2589352063130706	0.9063121701827105	0.9063121701827024	-0.1216963593447773	-0.1634048168253013	0.1213142284116402	-0.03675103610824831	-0.7436567451523598	-0.1937348300731215	-0.5559747538144927	2.430451296170693	-0.1671561724915765	0.736909270033492	-0.06491118834393436	1.909947211082901	1.909947211082893	0.1284643987809821	-0.07505693691024488	0.4028939238999505	0.01151870480363284	-0.2017850991635122	0.02126458052040078	-0.01121439617869695	-0.230271700490768	0.06785750484252981	0.04718651925059454	0.1914778353498369	-12.04610824141541	-21.35990127589294	6.468721799203951	-6.297299713194842	-540.8189745372051	-61.55935706352739	-20.53928918862315	1.177330442422074	0.6699185676283422	-0.1086485288656774	-2.441430056251813	0.7453920798632699	-0.4393652113295168	0.9157690519853907	-2.056748450267658	-2.056748450268645	-0.06056001526652243	0.2294908167604517	-0.7234128469457914	0.4584950638277031	-4.686306747127733e-07	3.192888446835894e-09	2.818375734061956e-06	2.519544072711614e-07	-5.141397656371699e-07	4.423747489258444e-07	-4.022921237855352e-07
